<svg xmlns="http://www.w3.org/2000/svg" viewBox="0 0 64 58" fill="none">
  <path
    fill="#3A589E"
    d="m15.97 23.88c.57 1.08.56 2.79 2.6 4.44 4.38 3.54 10.01 1.89 12.04-1.87.27-.5.93-2.38 1.08-2.58.6 1.04.57 2.57 2.63 4.44 4.2 3.79 11.56 2.12 13.06-4.46l.41.88c.51 1.66 1.26 2.72 2.63 3.87 5.18 4.35 13.95-.08 12.77-7.53-.15-.96-2.08-6.61-2.51-8.01-.79-2.56-1.76-5.35-2.52-7.92-.8-2.66-1.46-5.07-5.45-5.11-6.99-.07-14.02 0-21.02 0s-14.01-.03-21.02 0c-1.48.01-2.98.56-3.78 1.36-.98 1-1.21 2.22-1.65 3.62-.83 2.7-1.68 5.32-2.55 8.02-.46 1.41-2.3 6.91-2.48 7.99-1.04 6.42 5.42 11.06 10.96 8.63 2.04-.89 3.77-2.74 4.4-4.82.17-.58.1-.68.4-.95zm-7.59 9.14-2.52-.08-.03 16.97c-.02 4.51 3.12 7.66 7.56 7.67 11.96 0 24.89-.1 37.01.01 3.44.03 7.12-2.99 7.12-7.14l.01-17.52c-.57-.06-2.14.11-2.93.09-1.26-.03-1.83-.43-2.89-.51l-.01 16.99c0 2.6-.98 2.1-3.2 2.1-10.44 0-20.88-.05-31.31.09l-3.53-.02c-2.46 0-2.03-1.2-2.04-4.34l.03-14.8c-1.01-.01-1.82.49-3.27.49z"
  />
</svg>
